<svg version="1.1" xmlns="http://www.w3.org/2000/svg" xmlns:xlink="http://www.w3.org/1999/xlink" width="65.59998" height="70.35" viewBox="0,0,65.59998,70.35">
	<g transform="translate(-208.00003,-145)">
		<g data-paper-data="{&quot;isPaintingLayer&quot;:true}" fill-rule="nonzero" stroke="none" stroke-width="1" stroke-linecap="butt" stroke-linejoin="miter" stroke-miterlimit="10" stroke-dasharray="" stroke-dashoffset="0" style="mix-blend-mode: normal">
			<path d="M273.579,187.01c-0.02,0.74 -0.12,1.47 -0.29,2.19c-1.21,5.09 -4.33,9.48 -9.27,13.05c-0.04,0.03 -0.09,0.06 -0.13,0.1c-2.99,2.09 -5.64,3.62 -8.1,4.69c-1.81,0.78 -3.6,1.54 -5.36,2.27c-1.9,0.78 -4.57,1.56 -8.44,2.47c-3.98,0.93 -5.85,1.53 -6.62,1.81c-3.41,1.28 -5.45,1.76 -7.5,1.76c-1.12,0 -2.21,-0.15 -3.25,-0.45c-0.04,-0.01 -0.08,-0.02 -0.12,-0.04c-1.83,-0.55 -3.28,-1.24 -4.56,-2.18c-2.14,-1.56 -3.76,-3.69 -4.69,-6.17c-0.12,-0.33 -0.23,-0.67 -0.32,-1.01c-1.27,-4.77 0.23,-9.59 3.85,-12.86c-0.22,-3.13 -0.5,-7.01 -0.85,-11.59c-0.05,-0.85 -0.1,-1.61 -0.15,-2.3c-0.49,-1.58 -0.62,-3.26 -0.37,-4.94c0.09,-0.57 0.17,-1.29 0.2,-2.18c-1.92,-0.67 -3.98,-1.8 -6,-3.65c-2.02,-1.86 -3.28,-4.41 -3.52,-7.14c-0.11,-1.27 -0.34,-3.88 0.96,-6.71c1.14,-2.5 4.71,-7.98 13.99,-7.98c0.21,0 0.43,0 0.65,0.01c0.06,-0.01 0.13,-0.02 0.2,-0.03c0.53,-0.08 0.9,-0.14 1.13,-0.18l1.27,-0.25c0.54,-0.11 1.09,-0.18 1.65,-0.21c6.91,-0.33 11.41,-0.49 13.74,-0.49c0.95,0 1.63,0.03 2.24,0.08c5.71,0.44 7.89,0.83 9.14,1.11c0.04,0.01 0.07,0.02 0.11,0.03c6.26,1.48 10.92,4.5 13.86,8.96c0.06,0.1 0.12,0.19 0.18,0.29c1.4,2.27 2.8,6.14 1.52,11.66c-0.04,0.18 -0.08,0.35 -0.13,0.52c-0.43,1.53 -1.05,2.98 -1.86,4.34c1.66,1.47 3.13,3.1 4.38,4.87c0.07,0.09 0.13,0.18 0.19,0.27c2.19,3.3 2.37,7.01 2.27,9.88z" fill="#995900" />
			<path d="M262.589,186.651c-0.587,2.463 -2.258,4.692 -5.014,6.685c-2.346,1.643 -4.398,2.846 -6.157,3.606c-1.759,0.763 -3.489,1.496 -5.189,2.199c-1.291,0.528 -3.549,1.174 -6.773,1.936c-3.519,0.822 -6.157,1.555 -7.916,2.199c-2.17,0.821 -3.461,1.174 -3.87,1.056c-0.587,-0.177 -0.998,-0.353 -1.231,-0.528c-0.411,-0.293 -0.704,-0.673 -0.88,-1.144c-0.235,-0.88 0.117,-1.612 1.056,-2.199c0.409,-0.293 1.553,-0.585 3.431,-0.88c0,-0.058 -0.044,-0.233 -0.132,-0.527c-0.089,-0.293 -0.133,-0.527 -0.133,-0.704c0.177,-1.348 0.265,-2.08 0.265,-2.198c-0.235,-3.576 -0.616,-8.885 -1.144,-15.921c-0.118,-1.76 -0.206,-3.195 -0.265,-4.311c-0.059,-0.116 -0.176,-0.264 -0.352,-0.439c0.586,-3.812 0.41,-8.502 -0.527,-14.074l0.176,-0.176c-0.528,-0.058 -1.056,-0.088 -1.583,-0.088c-0.471,0 -1.086,0.06 -1.848,0.176c-0.763,0.118 -1.349,0.176 -1.759,0.176c-1.289,0 -2.521,-0.538 -3.694,-1.616c-0.058,-0.658 -0.058,-1.047 0,-1.166c0.527,-1.193 2.198,-1.703 5.014,-1.527c0.176,0 0.659,-0.058 1.451,-0.176c0.792,-0.117 1.333,-0.205 1.627,-0.264c0.293,-0.059 0.732,-0.146 1.319,-0.265c8.562,-0.409 13.399,-0.557 14.514,-0.439c3.812,0.294 6.362,0.587 7.652,0.88c3.46,0.821 5.863,2.258 7.213,4.31c0.469,0.763 0.527,1.906 0.176,3.431c-0.646,2.287 -2.521,4.281 -5.629,5.981c-1.231,0.703 -3.754,1.73 -7.564,3.078c8.268,1.702 14.043,4.868 17.328,9.5c0.35,0.526 0.496,1.669 0.438,3.429zM249.66,160.79c-2.111,-0.586 -4.662,-0.938 -7.653,-1.056h-4.75c-1.35,0 -2.814,0.176 -4.397,0.527c0.469,3.285 0.732,5.689 0.792,7.213v5.278c3.048,-0.469 7.241,-1.612 12.578,-3.431c2.756,-0.938 4.485,-1.905 5.189,-2.903c0.938,-1.348 1.407,-2.345 1.407,-2.99c0,-1.171 -1.056,-2.051 -3.166,-2.638zM257.047,187.443c0.469,-0.938 0.469,-1.729 0,-2.375c-4.222,-5.219 -10.438,-7.829 -18.647,-7.829c-1.35,0 -2.814,0.06 -4.397,0.176c0.293,6.1 0.732,12.345 1.319,18.736c0,0.41 0,0.646 0,0.703c0.232,0.411 0.436,0.88 0.61,1.407c3.142,-0.352 7.082,-1.539 11.823,-3.562c4.74,-2.023 7.839,-4.442 9.292,-7.256z" fill="#ffffff" />
		</g>
	</g>
</svg>
