<svg version="1.1" xmlns="http://www.w3.org/2000/svg" xmlns:xlink="http://www.w3.org/1999/xlink" width="77.82058" height="77.82058" viewBox="0,0,77.82058,77.82058">
	<g transform="translate(-201.22294,-141.09297)">
		<g data-paper-data="{&quot;isPaintingLayer&quot;:true}" fill-rule="nonzero" stroke-linejoin="miter" stroke-miterlimit="10" stroke-dasharray="" stroke-dashoffset="0" style="mix-blend-mode: normal">
			<path d="M248.00406,157.03367l2.63,-2.701l4,-2.15l3.5,0.15l3.75,2.35l2.55,1.5l2.45,1.75l2.55,2.25l2.7,3.75l-9,-0.75l-4.819,-1.801c1.05,2.132 6.422,4.773 8.348,8.041c3.238,5.49 2.447,6.583 3.328,9.97c1.305,5.031 5.281,10.774 2.893,15.54c-2.953,6.205 -9.719,11.506 -16.557,12.529c-9.943,1.485 -20.135,-1.858 -29.443,-5.279c-3.639,-1.463 -5.817,-5.526 -7.75,-8.75c-1.328,-2.217 -1.516,-4.804 -2,-7.5c-0.3,-1.806 -0.229,-3.621 -0.25,-5.5c-0.005,-2.662 3.413,-9.582 0,-8l-10.25,4.75l3,-12.75l1.4,-3.6l2.85,-4.15l3.25,-1l4,0.75l2.5,0.9l5.967,2.703c3.134,0.16 4.496,-1.703 9.224,-1.928c1.768,-0.085 4.978,0.088 6.518,0.231z" fill="#995900" stroke="#231f20" stroke-width="1.2" stroke-linecap="butt" />
			<path d="M269.13406,182.93267c0.639,1.665 1.729,3.516 1.25,5.25c-1.167,4.121 -2.812,7.963 -5.25,11.25c-2.434,2.953 -5.549,5.226 -9,7c-2.239,1.128 -4.983,0.964 -7.5,0.75c-2.395,-0.194 -5.047,-0.364 -7,-1.75c-3.565,-2.503 -7.472,-5.331 -9,-9.5c-1.224,-3.339 -1.132,-9.442 1.46,-10.58l7.785,-3.417c1.504,-3.417 -1.749,-7.463 -1.745,-11.253c0.004,-3.308 -0.507,-7.015 1.25,-9.75c0.832,-1.277 3.219,-0.394 4.25,0.5c2.393,1.989 3.733,5.005 5.25,7.5c1.064,1.749 2.539,4.849 2.75,5.5c0.183,0.334 -1.722,-3.122 -1.75,-3c-0.018,0.179 0.452,2.3 1.25,3.5c1.202,1.817 1.517,4.801 4.323,4.913l8.427,0.337l2,0.75z" fill="#ffffff" stroke="none" stroke-width="1" stroke-linecap="butt" />
			<path d="M244.98406,158.39467c2.84,0.7 3.887,1.469 3.887,1.469" fill="none" stroke="#000000" stroke-width="1" stroke-linecap="round" />
			<path d="M227.88586,158.88007l4.6916,3.375" fill="none" stroke="#000000" stroke-width="0.77444" stroke-linecap="butt" />
			<path d="M264.47406,169.54867c2.924,4.479 3.033,9.591 0.242,11.415c-2.793,1.825 -7.426,-0.332 -10.354,-4.813c-2.933,-4.48 -3.037,-9.589 -0.244,-11.415c2.791,-1.823 7.429,0.331 10.356,4.813z" fill="#ffffff" stroke="#231f20" stroke-width="1" stroke-linecap="butt" />
			<path d="M263.81336,175.37167c0,2.0369 -1.5127,3.6891 -3.395,3.6891c-1.8729,0 -3.4006,-1.6541 -3.4006,-3.6891c0,-2.037 1.5277,-3.693 3.4006,-3.693c1.8823,0 3.395,1.656 3.395,3.693" fill="#231f20" stroke="none" stroke-width="1.88608" stroke-linecap="butt" />
			<path d="M240.50106,172.80167c2.926,4.48 2.619,9.862 -0.681,12.015c-3.302,2.159 -8.351,0.272 -11.276,-4.208c-2.928,-4.48 -2.624,-9.86 0.678,-12.017c3.303,-2.156 8.35,-0.272 11.279,4.21z" fill="#ffffff" stroke="#231f20" stroke-width="1" stroke-linecap="butt" />
			<path d="M251.94876,183.56117c0.5167,-0.1253 1.0539,-0.2534 1.5911,-0.221c0.7394,0.0427 1.5743,0.0884 2.1527,0.442c1.1531,0.7027 3.2084,1.4599 2.8078,2.6518c-0.3781,1.4983 -2.3922,2.8507 -4.4925,3.1675c-2.0684,0.3094 -4.7153,-0.414 -5.8029,-1.7679c-0.9172,-1.0298 0.4998,-2.4883 1.4039,-3.4621c0.483,-0.523 1.5275,-0.607 2.3399,-0.8103z" fill="#3d302b" stroke="#000000" stroke-width="1.6844" stroke-linecap="butt" />
			<path d="M239.40806,189.41767c0,0 10.347,3.054 14.217,3.897c3.868,0.842 10.851,1.684 10.851,1.684c0,0 -7.99,10.245 -17.328,7.644c-9.338,-2.597 -9.169,-8.485 -7.74,-13.225z" fill="none" stroke="#231f20" stroke-width="1.2" stroke-linecap="butt" />
			<path d="M240.01336,178.37167c0,2.0369 -1.5127,3.6891 -3.395,3.6891c-1.8729,0 -3.4006,-1.6541 -3.4006,-3.6891c0,-2.037 1.5277,-3.693 3.4006,-3.693c1.8823,0 3.395,1.656 3.395,3.693" fill="#231f20" stroke="none" stroke-width="1.88608" stroke-linecap="butt" />
			<path d="M228.68406,188.23267l-0.3,-0.3" fill="none" stroke="#000000" stroke-width="2" stroke-linecap="round" />
			<path d="M234.68406,190.98267l-0.3,-0.3" fill="none" stroke="#000000" stroke-width="2" stroke-linecap="round" />
			<path d="M227.63406,195.18267l0.3,0.3" fill="none" stroke="#000000" stroke-width="2" stroke-linecap="round" />
			<path d="M268.13406,187.18267l0.3,0.3" fill="none" stroke="#000000" stroke-width="2" stroke-linecap="round" />
			<path d="M271.13406,189.68267l0.3,0.3" fill="none" stroke="#000000" stroke-width="2" stroke-linecap="round" />
			<path d="M267.13406,191.68267l0.3,0.3" fill="none" stroke="#000000" stroke-width="2" stroke-linecap="round" />
			<path d="M217.73406,172.18267l3.65,-1.65" fill="none" stroke="#000000" stroke-width="1" stroke-linecap="round" />
			<path d="M201.22294,218.91355v-77.82058h77.82058v77.82058z" fill="none" stroke="#000000" stroke-width="0" stroke-linecap="butt" />
		</g>
	</g>
</svg>
