<svg version="1.1" xmlns="http://www.w3.org/2000/svg" xmlns:xlink="http://www.w3.org/1999/xlink" width="50.5" height="50.5" viewBox="0,0,50.5,50.5"><defs><linearGradient x1="239.08074" y1="177.85403" x2="239.08074" y2="198.39632" gradientUnits="userSpaceOnUse" id="color-1"><stop offset="0" stop-color="#ffde00" stop-opacity="0"/><stop offset="1" stop-color="#ffde00"/></linearGradient></defs><g transform="translate(-214.75,-154.75)"><g data-paper-data="{&quot;isPaintingLayer&quot;:true}" fill-rule="nonzero" stroke-width="0" stroke-linejoin="miter" stroke-miterlimit="10" stroke-dasharray="" stroke-dashoffset="0" style="mix-blend-mode: normal"><path d="M238.98421,201.78544c-18.47788,0.25944 -17.39054,-10.34069 -17.5495,-15.63869c-0.33923,-11.30579 5.57907,-22.25996 5.57907,-22.25996l5.21267,14.86984c0,0 2.27314,-8.63213 4.36571,-13.09035c2.09257,-4.45822 5.55899,-7.45639 5.55899,-7.45639c0,0 -0.62916,8.32444 0.70227,13.38168c1.33143,5.05723 1.11777,7.97386 5.57526,5.26495c2.71716,-1.65127 9.20948,-11.62685 9.20948,-11.62685c0,0 2.14261,12.95937 -0.03773,17.79216c-2.18034,4.8328 -2.58603,18.53854 -18.61621,18.76362z" fill="#ffa000" stroke="#000000" stroke-linecap="round"/><path d="M235.72665,198.27068c-3.83571,-0.30019 -6.07607,-0.7657 -7.72916,-3.20833c-1.65309,-2.44263 -1.60417,-14.87499 -1.60417,-14.87499l5.97916,9.18749l5.97916,-11.52082l1.89583,11.66666c0,0 3.59649,-1.16687 5.58585,-2.48377c1.98936,-1.3169 5.93497,-5.24539 5.93497,-5.24539c0,0 -2.23289,9.88084 -5.83333,14.58332c-1.60734,2.09933 -6.37261,2.19602 -10.20832,1.89583z" fill="url(#color-1)" stroke="#000000" stroke-linecap="round"/><path d="M214.75,205.25v-50.5h50.5v50.5z" fill="none" stroke="none" stroke-linecap="butt"/></g></g></svg>
