<svg version="1.1" xmlns="http://www.w3.org/2000/svg" xmlns:xlink="http://www.w3.org/1999/xlink" width="177.10736" height="177.10736" viewBox="0,0,177.10736,177.10736">
	<g transform="translate(-151.44632,-91.44632)">
		<g data-paper-data="{&quot;isPaintingLayer&quot;:true}" fill-rule="nonzero" stroke="#000000" stroke-width="0" stroke-linecap="butt" stroke-linejoin="miter" stroke-miterlimit="10" stroke-dasharray="" stroke-dashoffset="0" style="mix-blend-mode: normal">
			<path d="M178,195.5v-15.5h124v15.5z" fill="#912bff" />
			<path d="M224.5,180v-31h31v31z" fill="#912bff" />
			<path d="M271,180v-15.5h15.5v15.5z" fill="#912bff" />
			<path d="M255.5,164.5v-15.5h31v15.5z" fill="#912bff" />
			<path d="M193.5,164.5v-15.5h31v15.5z" fill="#912bff" />
			<path d="M193.5,180v-15.5h15.5v15.5z" fill="#912bff" />
			<path d="M178,149v-15.5h15.5v15.5z" fill="#912bff" />
			<path d="M286.5,149v-15.5h15.5v15.5z" fill="#912bff" />
			<path d="M302,133.5v-15.5h15.5v15.5z" fill="#912bff" />
			<path d="M162.5,133.5v-15.5h15.5v15.5z" fill="#912bff" />
			<path d="M193.5,211v-15.5h93v15.5z" fill="#912bff" />
			<path d="M162.5,180v-15.5h15.5v15.5z" fill="#912bff" />
			<path d="M302,211v-15.5h15.5v15.5z" fill="#912bff" />
			<path d="M209,226.5v-15.5h15.5v15.5z" fill="#912bff" />
			<path d="M255.5,226.5v-15.5h15.5v15.5z" fill="#912bff" />
			<path d="M193.5,242v-15.5h15.5v15.5z" fill="#912bff" />
			<path d="M271,242v-15.5h15.5v15.5z" fill="#912bff" />
			<path d="M151.44632,268.55368v-177.10736h177.10736v177.10736z" fill="none" />
		</g>
	</g>
</svg>
