<svg version="1.1" xmlns="http://www.w3.org/2000/svg" xmlns:xlink="http://www.w3.org/1999/xlink" width="84.32456" height="84.32456" viewBox="0,0,84.32456,84.32456">
	<g transform="translate(-197.83772,-137.83772)">
		<g data-paper-data="{&quot;isPaintingLayer&quot;:true}" fill-rule="nonzero" stroke-linecap="butt" stroke-linejoin="miter" stroke-miterlimit="10" stroke-dasharray="" stroke-dashoffset="0" style="mix-blend-mode: normal">
			<path d="M199.58772,180c0,-22.31908 18.0932,-40.41228 40.41228,-40.41228c22.31908,0 40.41228,18.0932 40.41228,40.41228c0,22.31909 -18.0932,40.41228 -40.41228,40.41228c-22.31908,0 -40.41228,-18.0932 -40.41228,-40.41228z" fill="#fff418" stroke="#000000" stroke-width="3.5" />
			<path d="M240.11447,161.51597c2.78745,8.02787 -1.70178,16.87913 -10.02698,19.76982c-8.3252,2.89069 -17.3338,-1.27381 -20.12125,-9.30168c-2.78745,-8.02787 1.70178,-16.87913 10.02698,-19.76982c8.3252,-2.89069 17.33379,1.27381 20.12125,9.30168z" fill="#ffffff" stroke="none" stroke-width="0" />
			<path d="M231.5941,167.03498c0,4.36049 -1.21195,7.89536 -2.70698,7.89536c-1.49502,0 -2.70699,-3.53487 -2.70699,-7.89536c0,-4.36049 1.21196,-7.89537 2.70699,-7.89537c1.49502,0 2.70698,3.53488 2.70698,7.89537z" fill="#202020" stroke="#000000" stroke-width="0" />
			<path d="M260.00678,152.21428c8.3252,2.89069 12.81444,11.74195 10.02698,19.76982c-2.78746,8.02787 -11.79605,12.19238 -20.12125,9.30168c-8.3252,-2.89069 -12.81443,-11.74195 -10.02698,-19.76982c2.78745,-8.02787 11.79605,-12.19238 20.12125,-9.30168z" data-paper-data="{&quot;index&quot;:null}" fill="#ffffff" stroke="none" stroke-width="0" />
			<path d="M251.11288,159.13961c1.49502,0 2.70699,3.53488 2.70699,7.89537c0,4.36049 -1.21196,7.89536 -2.70699,7.89536c-1.49502,0 -2.70698,-3.53487 -2.70698,-7.89536c0,-4.36049 1.21196,-7.89537 2.70698,-7.89537z" data-paper-data="{&quot;index&quot;:null}" fill="#202020" stroke="#000000" stroke-width="0" />
			<path d="M268.20961,202.93812c0,8.1833 -12.62987,11.11288 -28.20961,11.11288c-15.57974,0 -28.20961,-2.92958 -28.20961,-11.11288c0,-8.1833 12.62987,-14.81717 28.20961,-14.81717c15.57974,0 28.20961,6.63387 28.20961,14.81717z" fill="#6d3434" stroke="#000000" stroke-width="0" />
			<path d="M245.55644,208.63703c0,1.41634 -2.87043,2.56451 -6.41128,2.56451c-3.54085,0 -6.41128,-1.14817 -6.41128,-2.56451c0,-1.41634 2.87043,-2.56451 6.41128,-2.56451c3.54085,0 6.41128,1.14817 6.41128,2.56451z" fill="#dd6565" stroke="#000000" stroke-width="0" />
		</g>
	</g>
</svg>
