<svg version="1.1" xmlns="http://www.w3.org/2000/svg" xmlns:xlink="http://www.w3.org/1999/xlink" width="38.8" height="38.8" viewBox="0,0,38.8,38.8">
	<g transform="translate(-220.6,-160.6)">
		<g data-paper-data="{&quot;isPaintingLayer&quot;:true}" fill-rule="nonzero" stroke-linejoin="miter" stroke-miterlimit="10" stroke-dasharray="" stroke-dashoffset="0" style="mix-blend-mode: normal">
			<path d="M243.01907,193.7783c-2.93292,0.99681 -14.30071,-8.61983 -13.38609,-11.89025c1.16016,-4.14839 6.26054,-9.6796 8.83753,-9.82476c1.93213,-0.10883 0.12819,3.00393 0.12819,3.00393c0,0 5.84984,-4.78701 7.78072,-3.2815c1.93088,1.50552 -4.00446,7.10625 -4.00446,7.10625c0,0 6.60897,-5.51889 8.70119,-4.12639c2.09222,1.39251 -2.76048,8.06961 -2.76048,8.06961c0,0 6.27298,-4.66007 8.11715,-3.40681c1.84416,1.25325 0.88919,4.03825 -0.70843,5.91808c-3.02371,3.55784 -7.84266,6.77917 -12.70532,8.43184z" data-paper-data="{&quot;index&quot;:null}" fill="#f1ff27" stroke="#000000" stroke-width="1" stroke-linecap="round" />
			<path d="M236.26848,188.48643c-2.90824,1.06668 -14.5028,-8.27531 -13.66667,-11.56666c1.0606,-4.17496 6.02721,-9.82658 8.6,-10.03333c1.92897,-0.15501 0.2,3 0.2,3c0,0 5.73366,-4.92557 7.7,-3.46667c1.96634,1.4589 -3.83333,7.2 -3.83333,7.2c0,0 6.47508,-5.67539 8.6,-4.33333c2.12492,1.34206 -2.56667,8.13333 -2.56667,8.13333c0,0 6.15972,-4.80878 8.03333,-3.6c1.87362,1.20878 0.98553,4.01583 -0.56667,5.93334c-2.93775,3.62915 -7.67826,6.96482 -12.5,8.73333z" data-paper-data="{&quot;index&quot;:null}" fill="#f1ff27" stroke="#000000" stroke-width="1" stroke-linecap="round" />
			<path d="M220.6,199.4v-38.8h38.8v38.8z" fill="none" stroke="none" stroke-width="0" stroke-linecap="butt" />
			<path d="M245.38333,166.31667l2.3,-4.6" fill="none" stroke="#ffa933" stroke-width="1" stroke-linecap="round" />
			<path d="M249.68333,168.11667l3.3,-4.2" fill="none" stroke="#ffa933" stroke-width="1" stroke-linecap="round" />
			<path d="M253.38333,170.61667l4.7,-2.1" fill="none" stroke="#ffa933" stroke-width="1" stroke-linecap="round" />
		</g>
	</g>
</svg>
