<svg version="1.1" xmlns="http://www.w3.org/2000/svg" xmlns:xlink="http://www.w3.org/1999/xlink" width="360.36036" height="360.36036" viewBox="0,0,360.36036,360.36036"><g transform="translate(-59.81982,0.18018)"><g data-paper-data="{&quot;isPaintingLayer&quot;:true}" fill-rule="nonzero" stroke-width="0" stroke-linecap="butt" stroke-linejoin="miter" stroke-miterlimit="10" stroke-dasharray="" stroke-dashoffset="0" style="mix-blend-mode: normal"><path d="M74.5,110v-35h331v35z" fill="#ff2d2d" stroke="none"/><path d="M74.5,145v-35h331v35z" fill="#ff892e" stroke="none"/><path d="M74.5,180v-35h331v35z" fill="#ffe42e" stroke="none"/><path d="M74.5,215v-35h331v35z" fill="#32ff2e" stroke="none"/><path d="M74.5,250v-35h331v35z" fill="#2ea4ff" stroke="none"/><path d="M74.5,285v-35h331v35z" fill="#632eff" stroke="none"/><path d="M74.5,180v-105h64l99,105z" fill="#a1521f" stroke="none"/><path d="M237.5,180l-99,105h-64v-105z" fill="#a1521f" stroke="none"/><path d="M74.5,180v-105h44.7546l97.2454,105z" fill="#111111" stroke="none"/><path d="M216.5,180l-97.2454,105h-44.7546v-105z" fill="#111111" stroke="none"/><path d="M74.5,180v-105h21.58388l96.41612,105z" fill="#45d4ff" stroke="none"/><path d="M192.5,180l-96.41612,105h-21.58388v-105z" fill="#45d4ff" stroke="none"/><path d="M74.5,180v-105l96,105z" fill="#ff99d1" stroke="none"/><path d="M170.5,180l-96,105v-105z" fill="#ff99d1" stroke="none"/><path d="M74.5,180v-77.65625l71,77.65625z" fill="#ffffff" stroke="none"/><path d="M145.5,180l-71,77.65625v-77.65625z" fill="#ffffff" stroke="none"/><path d="M59.81982,360.18018v-360.36036h360.36036v360.36036z" fill="none" stroke="#000000"/></g></g></svg>