<svg xmlns="http://www.w3.org/2000/svg" xmlns:xlink="http://www.w3.org/1999/xlink" version="1.1" width="76.94759368896484" height="104.14997863769531" viewBox="0.40075063705444336 -0.25 76.94759368896484 104.14997863769531">
	<!-- Exported by Scratch - http://scratch.mit.edu/ -->
	<g id="Layer_8">
		<path id="ID0.15052803186699748" fill="#995900" stroke="#231F20" stroke-width="1.2" d="M 24 72.15 C 22.912 72.34 22.191 73.177 21.2 73.35 C 20.03 73.469 18.836 73.285 17.7 73 C 15.763 72.512 13.891 72.094 12.2 71.25 C 11.051 70.614 9.928 69.701 9.35 68.65 C 8.071 66.318 6.171 61.97 6.6 61.15 C 7.011 60.363 9.818 63.683 11.5 64.85 C 13.018 65.927 14.407 67.33 16.2 67.65 C 19.183 68.329 22.552 66.531 25.35 67.75 C 26.749 68.354 26.733 70.799 26.25 72.25 C 25.994 73.017 24.737 72.014 24 72.15 Z " />
	</g>
	<path id="ID0.6714616790413857" fill="#995900" stroke="#231F20" stroke-width="1.2" d="M 49.543 54.473 C 49.543 54.473 50.998 56.815 51.062 59.442 C 51.127 62.165 50.711 66.426 52.866 67.6 C 56.247 69.442 62.825 67.137 63.04 72.791 C 63.251 78.443 52.888 76.414 49.741 75.338 C 47.046 74.412 45.182 73.58 44.561 70.156 C 44.561 70.156 40.797 56.187 44.365 54.566 C 47.933 52.945 49.543 54.473 49.543 54.473 Z " />
	<path id="ID0.1720457263290882" fill="#995900" stroke="#231F20" stroke-width="1.2" d="M 11.61 82.584 C 11.61 82.584 13.114 92.975 5.688 90.971 C 0.102 89.461 -0.017 70.291 5.282 70.28 C 8.519 70.274 9.707 73.139 9.707 73.139 C 9.707 73.139 14.092 77.951 16.657 77.451 C 19.222 76.949 24.635 70.748 24.635 70.748 C 24.635 70.748 27.51 68.209 30.781 70.771 C 34.052 73.332 32.302 76.949 32.302 76.949 C 32.302 76.949 26.232 84.021 21.288 85.021 C 16.343 86.023 11.913 82.453 9.708 81.57 " />
	<g id="Layer_6">
		<path id="ID0.14049953082576394" fill="#995900" stroke="#231F20" stroke-width="1.2" d="M 39.435 69.238 C 39.435 69.238 44.301 73.3 47.601 76.758 C 51.985 81.35 44.262 91.797 44.262 91.797 C 44.262 91.797 55.496 98.264 47.26 102.797 C 44.603 104.264 31.599 89.572 31.599 89.572 C 31.599 89.572 39.578 82.097 36.571 79.4 C 31.607 74.951 25.8 74.441 24.971 69.576 C 24.469 66.619 25.584 65.074 27.629 62.523 C 28.983 60.834 29.713 59.341 29.713 59.341 C 29.713 59.341 30.848 52.103 34.002 51.087 C 37.155 50.073 42.844 51.144 44.76 51.482 C 46.674 51.82 51.405 53.359 49.377 61.404 C 49.377 61.404 47.926 65.175 46.588 67.166 C 44.984 69.555 43.734 71.09 42.508 72.033 " />
		<path id="ID0.89655815763399" fill="#FFFFFF" d="M 47.182 65.631 C 47.182 65.631 49.732 62.883 44.631 60.137 C 39.529 57.391 37.182 60.121 35.607 61.709 C 32.876 64.451 38.941 69.162 38.941 69.162 L 42.324 71.726 C 42.324 71.726 44.24 70.144 45.025 68.769 C 45.807 67.396 47.182 65.631 47.182 65.631 " stroke-width="1" />
	</g>
	<path id="ID0.8233139645308256" fill="#995900" stroke="#231F20" stroke-width="1.2" d="M 21.428 58.395 C 22.367 58.452 25.053 58.608 27.492 58.786 C 30.506 59.003 35.943 58.335 33.293 53.688 C 30.644 49.038 26.553 50.014 21.332 49.934 C 18.52 49.891 15.547 48.522 14.01 51.829 C 12.476 55.141 8.959 65.167 16.323 67.225 C 23.689 69.282 20.941 59.088 21.273 56.768 " />
	<g id="ID0.9909146651625633">
		<path id="ID0.4623819920234382" fill="#995900" stroke="#231F20" stroke-width="1.2" d="M 48.059 6.906 C 46.519 6.763 43.309 6.59 41.541 6.675 C 36.813 6.9 35.451 8.763 32.317 8.603 L 26.35 5.9 L 23.85 5 L 19.85 4.25 L 16.6 5.25 L 13.75 9.4 L 12.35 13 L 9.35 25.75 L 19.6 21 C 23.013 19.418 19.595 26.338 19.6 29 C 19.621 30.879 19.55 32.694 19.85 34.5 C 20.334 37.196 20.522 39.783 21.85 42 C 23.783 45.224 25.961 49.287 29.6 50.75 C 38.908 54.171 49.1 57.514 59.043 56.029 C 65.881 55.006 72.647 49.705 75.6 43.5 C 77.988 38.734 74.012 32.991 72.707 27.96 C 71.826 24.573 72.617 23.48 69.379 17.99 C 67.453 14.722 62.081 12.081 61.031 9.949 L 65.85 11.75 L 74.85 12.5 L 72.15 8.75 L 69.6 6.5 L 67.15 4.75 L 64.6 3.25 L 60.85 0.9 L 57.35 0.75 L 53.35 2.9 L 50.72 5.601 L 48.059 6.906 Z " />
		<path id="ID0.7574484101496637" fill="#FFFFFF" d="M 70.6 29.5 L 68.6 28.75 L 60.173 28.413 C 57.367 28.301 57.052 25.317 55.85 23.5 C 55.052 22.3 54.582 20.179 54.6 20 C 54.628 19.878 56.533 23.334 56.35 23 C 56.139 22.349 54.664 19.249 53.6 17.5 C 52.083 15.005 50.743 11.989 48.35 10 C 47.319 9.106 44.932 8.223 44.1 9.5 C 42.343 12.235 42.854 15.942 42.85 19.25 C 42.846 23.04 46.099 27.086 44.595 30.503 L 36.81 33.92 C 34.218 35.058 34.126 41.161 35.35 44.5 C 36.878 48.669 40.785 51.497 44.35 54 C 46.303 55.386 48.955 55.556 51.35 55.75 C 53.867 55.964 56.611 56.128 58.85 55 C 62.301 53.226 65.416 50.953 67.85 48 C 70.288 44.713 71.933 40.871 73.1 36.75 C 73.579 35.016 72.489 33.165 71.85 31.5 L 70.6 29.5 Z " stroke-width="1" />
		<path id="ID0.8880730723030865" fill="none" stroke="#000000" stroke-linecap="round" d="M 47.7 6.962 C 50.54 7.662 51.587 8.431 51.587 8.431 " stroke-width="1" />
		<path id="ID0.11630840878933668" fill="none" stroke="#000000" d="M 30.5518 7.4474 L 35.2434 10.8224 " stroke-width="0.7744361162185669" />
		<path id="ID0.009375451132655144" fill="#FFFFFF" stroke="#231F20" d="M 67.19 18.116 C 70.114 22.595 70.223 27.707 67.432 29.531 C 64.639 31.356 60.006 29.199 57.078 24.718 C 54.145 20.238 54.041 15.129 56.834 13.303 C 59.625 11.48 64.263 13.634 67.19 18.116 Z " stroke-width="1" />
		<path id="ID0.9939767098985612" fill="#231F20" d="M 66.5293 23.939 C 66.5293 25.9759 65.0166 27.6281 63.1343 27.6281 C 61.2614 27.6281 59.7337 25.974 59.7337 23.939 C 59.7337 21.902 61.2614 20.246 63.1343 20.246 C 65.0166 20.246 66.5293 21.902 66.5293 23.939 " stroke-width="1.8860759735107422" />
		<path id="ID0.506236947607249" fill="#FFFFFF" stroke="#231F20" d="M 43.217 21.369 C 46.143 25.849 45.836 31.231 42.536 33.384 C 39.234 35.543 34.185 33.656 31.26 29.176 C 28.332 24.696 28.636 19.316 31.938 17.159 C 35.241 15.003 40.288 16.887 43.217 21.369 Z " stroke-width="1" />
		<path id="ID0.2522446974180639" fill="#3D302B" stroke="#000000" stroke-width="1.684404156148991" d="M 54.6647 32.1285 C 55.1814 32.0032 55.7186 31.8751 56.2558 31.9075 C 56.9952 31.9502 57.8301 31.9959 58.4085 32.3495 C 59.5616 33.0522 61.6169 33.8094 61.2163 35.0013 C 60.8382 36.4996 58.8241 37.852 56.7238 38.1688 C 54.6554 38.4782 52.0085 37.7548 50.9209 36.4009 C 50.0037 35.3711 51.4207 33.9126 52.3248 32.9388 C 52.8078 32.4158 53.8523 32.3318 54.6647 32.1285 Z " />
		<g id="Layer_4">
			<path id="ID0.6143585885874927" fill="none" stroke="#231F20" stroke-width="1.2" d="M 42.124 37.985 C 42.124 37.985 52.471 41.039 56.341 41.882 C 60.209 42.724 67.192 43.566 67.192 43.566 C 67.192 43.566 59.202 53.811 49.864 51.21 C 40.526 48.613 40.695 42.725 42.124 37.985 Z " />
		</g>
		<path id="ID0.9939767098985612" fill="#231F20" d="M 42.7293 26.939 C 42.7293 28.9759 41.2166 30.6281 39.3343 30.6281 C 37.4614 30.6281 35.9337 28.974 35.9337 26.939 C 35.9337 24.902 37.4614 23.246 39.3343 23.246 C 41.2166 23.246 42.7293 24.902 42.7293 26.939 " stroke-width="1.8860759735107422" />
		<path id="ID0.4438957371748984" fill="none" stroke="#000000" stroke-width="2" stroke-linecap="round" d="M 31.1 36.5 L 31.4 36.8 " />
		<path id="ID0.4192697685211897" fill="none" stroke="#000000" stroke-width="2" stroke-linecap="round" d="M 37.1 39.25 L 37.4 39.55 " />
		<path id="ID0.7082300009205937" fill="none" stroke="#000000" stroke-width="2" stroke-linecap="round" d="M 30.35 43.75 L 30.65 44.05 " />
		<path id="ID0.417174369096756" fill="none" stroke="#000000" stroke-width="2" stroke-linecap="round" d="M 70.85 35.75 L 71.15 36.05 " />
		<path id="ID0.7923678806982934" fill="none" stroke="#000000" stroke-width="2" stroke-linecap="round" d="M 73.85 38.25 L 74.15 38.55 " />
		<path id="ID0.3179997159168124" fill="none" stroke="#000000" stroke-width="2" stroke-linecap="round" d="M 69.85 40.25 L 70.15 40.55 " />
		<path id="ID0.06174679286777973" fill="none" stroke="#000000" stroke-width="1" stroke-linecap="round" d="M 24.1 19.1 L 20.45 20.75 " />
	</g>
	<path id="ID0.702225788962096" fill="#FFFFFF" stroke="#FFFFFF" stroke-width="0.9113833106936744" stroke-linecap="round" d="M 8.0352 64.3735 C 8.0795 64.6969 8.2044 64.9741 8.3072 65.2665 C 8.4143 65.6492 8.5314 66.0477 8.7604 66.3395 C 8.854 66.5665 9.0413 66.8902 9.2378 66.7689 C 9.4831 66.6141 9.3386 66.0427 9.5661 65.828 C 9.8018 65.6049 10.2192 65.8637 10.446 65.6281 C 10.6489 65.4193 10.6277 65.039 10.503 64.7908 C 10.5 64.5183 10.2533 64.3958 10.0913 64.223 C 9.9073 64.0354 9.6843 63.9529 9.4824 63.8211 C 9.216 63.5399 8.9562 63.2648 8.6922 62.99 C 8.3698 62.6545 7.9796 62.0096 7.6879 61.9234 C 7.5289 61.9334 7.759 62.5542 7.7873 62.837 C 7.8193 63.1782 7.8475 63.5267 7.9114 63.8544 C 7.9157 64.0494 7.9873 64.206 8.0352 64.3735 Z " />
</svg>
