<svg xmlns="http://www.w3.org/2000/svg" xmlns:xlink="http://www.w3.org/1999/xlink" version="1.1" width="72.54920959472656" height="96.26698303222656" viewBox="-0.3008638024330139 -0.25 72.54920959472656 96.26698303222656">
  <!-- Exported by Scratch - http://scratch.mit.edu/ -->
  <g id="Layer_3">
    <path id="ID0.3331584404222667" fill="#995900" stroke="#000000" d="M 14.462 69.039 C 12.047 68.588 9.315 66.664 6.72 65.536 C 4.61 64.62 0.892 61.821 0.75 63 C 0.312 64.534 2.771 69.475 5.5 71.25 C 9.159 73.63 13.785 74.544 18.25 74.5 C 20.745 74.475 23.368 73.118 25.195 71.054 C 26.275 69.821 25.914 66.782 25.105 66.31 C 24.295 65.838 17.878 69.677 14.462 69.039 Z " stroke-width="1"/>
  </g>
  <g id="ID0.9823033609427512">
    <path id="ID0.6017044149339199" fill="#995900" d="M 30.217 76.756 C 30.217 76.756 21.385 82.956 13.146 85.168 L 13.232 85.383 C 14.479 87.207 19.102 92.88 12.898 94.879 C 7.565 96.596 -2.222 81.775 2.077 78.977 C 4.703 77.264 6.969 78.725 6.969 78.725 C 6.969 78.725 10.443 77.655 12.97 76.38 C 17.273 74.219 18.754 72.927 18.754 72.927 C 18.754 72.927 22.938 68.621 25.61 68.79 C 28.281 68.96 33.669 73.504 30.217 76.756 Z " stroke-width="1"/>
    <path id="ID0.30068926280364394" fill="none" stroke="#231F20" stroke-width="1.2" d="M 13.232 85.383 C 14.479 87.207 19.102 92.88 12.898 94.879 C 7.565 96.596 -2.431 81.535 1.868 78.734 C 4.494 77.021 6.969 78.724 6.969 78.724 C 6.969 78.724 10.443 77.652 12.97 76.376 C 17.273 74.215 18.754 72.923 18.754 72.923 "/>
    <path id="ID0.458734814543277" fill="none" stroke="#231F20" stroke-width="1.2" d="M 30.217 76.756 C 30.217 76.756 20.094 83.863 11.413 85.575 "/>
  </g>
  <path id="ID0.09941870020702481" fill="#995900" stroke="#231F20" stroke-width="1.2" d="M 44.169 64.885 C 44.169 64.885 45.404 65.05 48.913 68.561 C 52.422 72.069 54.939 70.721 57.824 69.285 C 60.701 67.842 68.361 63.159 64.314 59.468 C 60.265 55.78 58.107 60.614 54.599 61.873 C 51.087 63.133 49.538 59.386 47.741 57.586 C 47.152 56.993 46.553 56.487 46.012 56.081 C 46.012 56.081 45.041 55.321 44.106 58.871 C 43.172 62.412 42.162 63.415 44.169 64.885 Z "/>
  <g id="Layer_2_1_">
    <path id="ID0.20124437706544995" fill="#995900" stroke="#231F20" stroke-width="1.2" d="M 38.753 72.012 C 39.941 71.1 41.15 69.61 42.704 67.299 C 44 65.372 45.404 61.721 45.404 61.721 C 46.279 59.2 45.172 56.302 43.502 54.425 C 41.269 51.899 37.973 48.83 34.5 49 C 30.983 49.423 27.643 52.643 26.315 55.882 C 24.219 60.994 16.725 64.153 25.259 72.445 C 25.259 72.445 30.16 76.287 36.023 82.084 C 40.854 86.859 48.068 92.686 48.068 92.686 C 48.068 92.686 67.04 94.874 67.603 91.993 C 69.525 82.203 52.826 85.082 52.826 85.082 C 52.826 85.082 48.221 81.149 46.101 79.288 C 42.623 76.229 34.976 68.517 34.976 68.517 "/>
    <path id="ID0.2669955692254007" fill="#FFFFFF" d="M 43.253 65.434 C 43.253 65.434 45.723 62.774 40.784 60.117 C 35.845 57.46 33.571 60.1 32.045 61.638 C 29.401 64.293 35.488 68.249 35.488 68.249 L 38.664 71.453 C 38.664 71.453 40.402 69.806 41.163 68.474 C 42.036 67.26 43.253 65.434 43.253 65.434 " stroke-width="1"/>
  </g>
  <path id="ID0.23263558046892285" fill="#995900" stroke="#231F20" stroke-width="1.2" d="M 21.926 63.218 C 22.675 62.647 24.815 61.016 26.78 59.561 C 29.208 57.762 32.897 53.712 27.857 51.915 C 22.817 50.114 20.35 53.519 16.338 56.861 C 14.179 58.662 11.03 59.56 12.019 63.07 C 13.012 66.581 16.881 76.478 23.808 73.24 C 30.737 70.001 22.009 64.06 20.748 62.083 "/>
  <g id="ID0.9909146651625633">
    <path id="ID0.4623819920234382" fill="#995900" stroke="#231F20" stroke-width="1.2" d="M 42.959 6.906 C 41.419 6.763 38.209 6.59 36.441 6.675 C 31.713 6.9 30.351 8.763 27.217 8.603 L 21.25 5.9 L 18.75 5 L 14.75 4.25 L 11.5 5.25 L 8.65 9.4 L 7.25 13 L 4.25 25.75 L 14.5 21 C 17.913 19.418 14.495 26.338 14.5 29 C 14.521 30.879 14.45 32.694 14.75 34.5 C 15.234 37.196 15.422 39.783 16.75 42 C 18.683 45.224 20.861 49.287 24.5 50.75 C 33.808 54.171 44 57.514 53.943 56.029 C 60.781 55.006 67.547 49.705 70.5 43.5 C 72.888 38.734 68.912 32.991 67.607 27.96 C 66.726 24.573 67.517 23.48 64.279 17.99 C 62.353 14.722 56.981 12.081 55.931 9.949 L 60.75 11.75 L 69.75 12.5 L 67.05 8.75 L 64.5 6.5 L 62.05 4.75 L 59.5 3.25 L 55.75 0.9 L 52.25 0.75 L 48.25 2.9 L 45.62 5.601 L 42.959 6.906 Z "/>
    <path id="ID0.7574484101496637" fill="#FFFFFF" d="M 65.5 29.5 L 63.5 28.75 L 55.073 28.413 C 52.267 28.301 51.952 25.317 50.75 23.5 C 49.952 22.3 49.482 20.179 49.5 20 C 49.528 19.878 51.433 23.334 51.25 23 C 51.039 22.349 49.564 19.249 48.5 17.5 C 46.983 15.005 45.643 11.989 43.25 10 C 42.219 9.106 39.832 8.223 39 9.5 C 37.243 12.235 37.754 15.942 37.75 19.25 C 37.746 23.04 40.999 27.086 39.495 30.503 L 31.71 33.92 C 29.118 35.058 29.026 41.161 30.25 44.5 C 31.778 48.669 35.685 51.497 39.25 54 C 41.203 55.386 43.855 55.556 46.25 55.75 C 48.767 55.964 51.511 56.128 53.75 55 C 57.201 53.226 60.316 50.953 62.75 48 C 65.188 44.713 66.833 40.871 68 36.75 C 68.479 35.016 67.389 33.165 66.75 31.5 L 65.5 29.5 Z " stroke-width="1"/>
    <path id="ID0.8880730723030865" fill="none" stroke="#000000" stroke-linecap="round" d="M 42.6 6.962 C 45.44 7.662 46.487 8.431 46.487 8.431 " stroke-width="1"/>
    <path id="ID0.11630840878933668" fill="none" stroke="#000000" d="M 25.5018 7.4474 L 30.1934 10.8224 " stroke-width="0.7744361162185669"/>
    <path id="ID0.009375451132655144" fill="#FFFFFF" stroke="#231F20" d="M 62.09 18.116 C 65.014 22.595 65.123 27.707 62.332 29.531 C 59.539 31.356 54.906 29.199 51.978 24.718 C 49.045 20.238 48.941 15.129 51.734 13.303 C 54.525 11.48 59.163 13.634 62.09 18.116 Z " stroke-width="1"/>
    <path id="ID0.9939767098985612" fill="#231F20" d="M 61.4293 23.939 C 61.4293 25.9759 59.9166 27.6281 58.0343 27.6281 C 56.1614 27.6281 54.6337 25.974 54.6337 23.939 C 54.6337 21.902 56.1614 20.246 58.0343 20.246 C 59.9166 20.246 61.4293 21.902 61.4293 23.939 " stroke-width="1.8860759735107422"/>
    <path id="ID0.506236947607249" fill="#FFFFFF" stroke="#231F20" d="M 38.117 21.369 C 41.043 25.849 40.736 31.231 37.436 33.384 C 34.134 35.543 29.085 33.656 26.16 29.176 C 23.232 24.696 23.536 19.316 26.838 17.159 C 30.141 15.003 35.188 16.887 38.117 21.369 Z " stroke-width="1"/>
    <path id="ID0.2522446974180639" fill="#3D302B" stroke="#000000" stroke-width="1.684404156148991" d="M 49.5647 32.1285 C 50.0814 32.0032 50.6186 31.8751 51.1558 31.9075 C 51.8952 31.9502 52.7301 31.9959 53.3085 32.3495 C 54.4616 33.0522 56.5169 33.8094 56.1163 35.0013 C 55.7382 36.4996 53.7241 37.852 51.6238 38.1688 C 49.5554 38.4782 46.9085 37.7548 45.8209 36.4009 C 44.9037 35.3711 46.3207 33.9126 47.2248 32.9388 C 47.7078 32.4158 48.7523 32.3318 49.5647 32.1285 Z "/>
    <g id="Layer_4">
      <path id="ID0.6143585885874927" fill="none" stroke="#231F20" stroke-width="1.2" d="M 37.024 37.985 C 37.024 37.985 47.371 41.039 51.241 41.882 C 55.109 42.724 62.092 43.566 62.092 43.566 C 62.092 43.566 54.102 53.811 44.764 51.21 C 35.426 48.613 35.595 42.725 37.024 37.985 Z "/>
    </g>
    <path id="ID0.9939767098985612" fill="#231F20" d="M 37.6293 26.939 C 37.6293 28.9759 36.1166 30.6281 34.2343 30.6281 C 32.3614 30.6281 30.8337 28.974 30.8337 26.939 C 30.8337 24.902 32.3614 23.246 34.2343 23.246 C 36.1166 23.246 37.6293 24.902 37.6293 26.939 " stroke-width="1.8860759735107422"/>
    <path id="ID0.4438957371748984" fill="none" stroke="#000000" stroke-width="2" stroke-linecap="round" d="M 26 36.5 L 26.3 36.8 "/>
    <path id="ID0.4192697685211897" fill="none" stroke="#000000" stroke-width="2" stroke-linecap="round" d="M 32 39.25 L 32.3 39.55 "/>
    <path id="ID0.7082300009205937" fill="none" stroke="#000000" stroke-width="2" stroke-linecap="round" d="M 25.25 43.75 L 25.55 44.05 "/>
    <path id="ID0.417174369096756" fill="none" stroke="#000000" stroke-width="2" stroke-linecap="round" d="M 65.75 35.75 L 66.05 36.05 "/>
    <path id="ID0.7923678806982934" fill="none" stroke="#000000" stroke-width="2" stroke-linecap="round" d="M 68.75 38.25 L 69.05 38.55 "/>
    <path id="ID0.3179997159168124" fill="none" stroke="#000000" stroke-width="2" stroke-linecap="round" d="M 64.75 40.25 L 65.05 40.55 "/>
    <path id="ID0.06174679286777973" fill="none" stroke="#000000" stroke-width="1" stroke-linecap="round" d="M 19 19.1 L 15.35 20.75 "/>
  </g>
  <path id="ID0.702225788962096" fill="#FFFFFF" stroke="#FFFFFF" stroke-width="1" stroke-linecap="round" d="M 2.6 66.15 C 2.717 66.467 2.92 66.724 3.1 67 C 3.303 67.366 3.521 67.746 3.85 68 C 4.006 68.212 4.292 68.505 4.5 68.35 C 4.759 68.153 4.474 67.604 4.7 67.35 C 4.934 67.086 5.479 67.275 5.7 67 C 5.898 66.756 5.797 66.378 5.6 66.15 C 5.542 65.877 5.226 65.796 5 65.65 C 4.745 65.493 4.465 65.448 4.2 65.35 C 3.829 65.113 3.467 64.881 3.1 64.65 C 2.652 64.368 2.062 63.787 1.7 63.75 C 1.514 63.787 1.91 64.371 2 64.65 C 2.106 64.987 2.209 65.332 2.35 65.65 C 2.394 65.845 2.51 65.99 2.6 66.15 Z "/>
</svg>
