<svg version="1.1" xmlns="http://www.w3.org/2000/svg" xmlns:xlink="http://www.w3.org/1999/xlink" width="107.2" height="112.34176" viewBox="0,0,107.2,112.34176"><g transform="translate(-181.30224,-127.00263)"><g data-paper-data="{&quot;isPaintingLayer&quot;:true}" fill-rule="nonzero" stroke-linejoin="miter" stroke-miterlimit="10" stroke-dasharray="" stroke-dashoffset="0" style="mix-blend-mode: normal"><path d="M280.46314,228.54215c-2.20914,0 -4,-2.11918 -4,-4.73333v-4.73333c0,-2.61415 1.79086,-4.73334 4,-4.73334h0.8c2.20914,0 4,2.11919 4,4.73334v4.73333c0,2.61415 -1.79086,4.73333 -4,4.73333z" fill="#585b5c" stroke="#231f20" stroke-width="1.2" stroke-linecap="butt"/><path d="M187.06314,228.34215c-2.20914,0 -4,-2.11919 -4,-4.73333v-4.73333c0,-2.61415 1.79086,-4.73333 4,-4.73333h0.8c2.20914,0 4,2.11919 4,4.73333v4.73333c0,2.61415 -1.79086,4.73333 -4,4.73333z" fill="#585b5c" stroke="#231f20" stroke-width="1.2" stroke-linecap="butt"/><path d="M228.8304,198.17651c0.809,0.472 1.17,3.511 0.09,4.744c-1.827,2.064 -4.45,3.421 -6.945,3.446c-4.465,0.044 -9.091,-0.87 -12.75,-3.25c-2.729,-1.775 -5.188,-6.716 -4.75,-8.25c0.142,-1.179 3.86,1.62 5.97,2.536c2.595,1.128 5.327,3.052 7.742,3.503c3.416,0.638 9.833,-3.201 10.643,-2.729z" fill="#995900" stroke="#000000" stroke-width="1" stroke-linecap="butt"/><g stroke-linecap="butt"><path d="M233.9424,208.62251c0,0 -8.832,6.2 -17.071,8.412l0.086,0.215c1.247,1.824 5.87,7.497 -0.334,9.496c-5.333,1.717 -15.12,-13.104 -10.821,-15.902c2.626,-1.713 4.892,-0.252 4.892,-0.252c0,0 3.474,-1.07 6.001,-2.345c4.303,-2.161 5.784,-3.453 5.784,-3.453c0,0 4.184,-4.306 6.856,-4.137c2.671,0.17 8.059,4.714 4.607,7.966z" fill="#995900" stroke="none" stroke-width="1"/><path d="M216.9574,217.24951c1.247,1.824 5.87,7.497 -0.334,9.496c-5.333,1.717 -15.329,-13.344 -11.03,-16.145c2.626,-1.713 5.101,-0.01 5.101,-0.01c0,0 3.474,-1.072 6.001,-2.348c4.303,-2.161 5.784,-3.453 5.784,-3.453" fill="none" stroke="#231f20" stroke-width="1.2"/><path d="M233.9424,208.62251c0,0 -10.123,7.107 -18.804,8.819" fill="none" stroke="#231f20" stroke-width="1.2"/></g><path d="M248.38829,186.23604c3.52143,-1.03743 3.37373,0.18676 3.37373,0.18676c-0.06737,0.67304 -0.19028,1.44746 -0.39281,2.25835c-0.61002,2.46923 -3.01432,5.734 -0.11846,8.08681c2.89294,2.3499 8.14601,1.69432 7.08617,7.06764c-1.06344,5.37315 -9.03509,1.2429 -11.75887,-0.47186c-2.72193,-1.72523 -5.17809,-3.18114 -3.99276,-7.99925c1.18789,-4.81966 0.68985,-5.96176 0.68985,-5.96176c0.21897,-2.4781 1.59993,-2.13306 5.11315,-3.16669z" fill="#995900" stroke="#231f20" stroke-width="1.2" stroke-linecap="butt"/><g stroke-linecap="butt"><path d="M238.7014,200.38351c0,0 7.647,7.712 11.125,10.771c2.12,1.861 6.725,5.794 6.725,5.794c0,0 16.699,-2.879 14.777,6.911c-0.563,2.881 -19.535,0.693 -19.535,0.693c0,0 -7.214,-5.827 -12.045,-10.602c-5.863,-5.797 -10.764,-9.639 -10.764,-9.639c-8.534,-8.292 -1.04,-11.451 1.056,-16.563c1.328,-3.239 4.668,-6.459 8.185,-6.882c3.473,-0.17 6.769,2.899 9.002,5.425c1.67,1.877 2.777,4.775 1.902,7.296c0,0 -1.404,3.651 -2.7,5.578c-1.554,2.311 -2.763,3.801 -3.951,4.713" fill="#995900" stroke="#231f20" stroke-width="1.2"/><path d="M246.9784,197.30051c0,0 -1.217,1.826 -2.09,3.04c-0.761,1.332 -2.499,2.979 -2.499,2.979l-3.176,-3.204c0,0 -6.087,-3.956 -3.443,-6.611c1.526,-1.538 3.8,-4.178 8.739,-1.521c4.939,2.657 2.469,5.317 2.469,5.317" fill="#ffffff" stroke="none" stroke-width="1"/></g><path d="M226.30776,196.0008c1.68128,1.63461 11.54028,5.41266 5.5402,10.1562c-5.99836,4.74211 -12.03661,-4.00199 -13.8093,-7.19115c-1.76857,-3.1891 1.09008,-4.78621 2.77783,-7.03485c3.13737,-4.17397 4.75657,-8.05447 10.07545,-7.45893c5.31797,0.59165 2.65754,5.38053 0.70752,7.689c-1.57838,1.86734 -3.28667,3.94616 -3.88454,4.6739" fill="#995900" stroke="#231f20" stroke-width="1.2" stroke-linecap="butt"/><path d="M206.0754,197.51651c-0.141,-0.318 -0.244,-0.663 -0.35,-1c-0.09,-0.279 -0.486,-0.863 -0.3,-0.9c0.362,0.037 0.952,0.618 1.4,0.9c0.367,0.231 0.729,0.463 1.1,0.7c0.265,0.098 0.545,0.143 0.8,0.3c0.226,0.146 0.542,0.227 0.6,0.5c0.197,0.228 0.298,0.606 0.1,0.85c-0.221,0.275 -0.766,0.086 -1,0.35c-0.226,0.254 0.059,0.803 -0.2,1c-0.208,0.155 -0.494,-0.138 -0.65,-0.35c-0.329,-0.254 -0.547,-0.634 -0.75,-1c-0.18,-0.276 -0.383,-0.533 -0.5,-0.85c-0.09,-0.16 -0.206,-0.305 -0.25,-0.5z" fill="#ffffff" stroke="#ffffff" stroke-width="1" stroke-linecap="round"/><g stroke-linecap="butt"><path d="M216.3162,217.52232c0,3.57955 -2.9941,6.48134 -6.68751,6.48134c-3.69341,0 -6.68751,-2.9018 -6.68751,-6.48134c0,-3.57955 2.9941,-6.48134 6.68751,-6.48134c3.69341,0 6.68751,2.9018 6.68751,6.48134z" fill="none" stroke="#ffba25" stroke-width="1.5"/><path d="M196.66521,227.93466v-11.79297h26.33849v11.79297z" fill="#0031c2" stroke="#231f20" stroke-width="1.2"/><path d="M199.12194,217.00458c-2.20914,0 -4,-0.70828 -4,-1.58198v0c0,-0.87371 1.79086,-1.58198 4,-1.58198h21.52792c2.20914,0 4,0.70828 4,1.58198v0c0,0.87371 -1.79086,1.58198 -4,1.58198z" fill="#0031c2" stroke="#231f20" stroke-width="1.2"/></g><path d="M181.90224,238.74439v-13h106v13z" fill="#ffa100" stroke="#231f20" stroke-width="1.2" stroke-linecap="butt"/><g><path d="M249.04776,137.46751l2.63,-2.701l4,-2.15l3.5,0.15l3.75,2.35l2.55,1.5l2.45,1.75l2.55,2.25l2.7,3.75l-9,-0.75l-4.819,-1.801c1.05,2.132 6.422,4.773 8.348,8.041c3.238,5.49 2.447,6.583 3.328,9.97c1.305,5.031 5.281,10.774 2.893,15.54c-2.953,6.205 -9.719,11.506 -16.557,12.529c-9.943,1.485 -20.135,-1.858 -29.443,-5.279c-3.639,-1.463 -5.817,-5.526 -7.75,-8.75c-1.328,-2.217 -1.516,-4.804 -2,-7.5c-0.3,-1.806 -0.229,-3.621 -0.25,-5.5c-0.005,-2.662 3.413,-9.582 0,-8l-10.25,4.75l3,-12.75l1.4,-3.6l2.85,-4.15l3.25,-1l4,0.75l2.5,0.9l5.967,2.703c3.134,0.16 4.496,-1.703 9.224,-1.928c1.768,-0.085 4.978,0.088 6.518,0.231z" fill="#995900" stroke="#231f20" stroke-width="1.2" stroke-linecap="butt"/><path d="M270.17776,163.36651c0.639,1.665 1.729,3.516 1.25,5.25c-1.167,4.121 -2.812,7.963 -5.25,11.25c-2.434,2.953 -5.549,5.226 -9,7c-2.239,1.128 -4.983,0.964 -7.5,0.75c-2.395,-0.194 -5.047,-0.364 -7,-1.75c-3.565,-2.503 -7.472,-5.331 -9,-9.5c-1.224,-3.339 -1.132,-9.442 1.46,-10.58l7.785,-3.417c1.504,-3.417 -1.749,-7.463 -1.745,-11.253c0.004,-3.308 -0.507,-7.015 1.25,-9.75c0.832,-1.277 3.219,-0.394 4.25,0.5c2.393,1.989 3.733,5.005 5.25,7.5c1.064,1.749 2.539,4.849 2.75,5.5c0.183,0.334 -1.722,-3.122 -1.75,-3c-0.018,0.179 0.452,2.3 1.25,3.5c1.202,1.817 1.517,4.801 4.323,4.913l8.427,0.337l2,0.75z" fill="#ffffff" stroke="none" stroke-width="1" stroke-linecap="butt"/><path d="M246.02776,138.82851c2.84,0.7 3.887,1.469 3.887,1.469" fill="none" stroke="#000000" stroke-width="1" stroke-linecap="round"/><path d="M228.92956,139.31391l4.6916,3.375" fill="none" stroke="#000000" stroke-width="0.77444" stroke-linecap="butt"/><path d="M265.51776,149.98251c2.924,4.479 3.033,9.591 0.242,11.415c-2.793,1.825 -7.426,-0.332 -10.354,-4.813c-2.933,-4.48 -3.037,-9.589 -0.244,-11.415c2.791,-1.823 7.429,0.331 10.356,4.813z" fill="#ffffff" stroke="#231f20" stroke-width="1" stroke-linecap="butt"/><path d="M262.90225,155.80551c0,2.0369 -1.5127,3.6891 -3.395,3.6891c-1.8729,0 -3.4006,-1.6541 -3.4006,-3.6891c0,-2.037 1.5277,-3.693 3.4006,-3.693c1.8823,0 3.395,1.656 3.395,3.693" fill="#231f20" stroke="none" stroke-width="1.88608" stroke-linecap="butt"/><path d="M241.54476,153.23551c2.926,4.48 2.619,9.862 -0.681,12.015c-3.302,2.159 -8.351,0.272 -11.276,-4.208c-2.928,-4.48 -2.624,-9.86 0.678,-12.017c3.303,-2.156 8.35,-0.272 11.279,4.21z" fill="#ffffff" stroke="#231f20" stroke-width="1" stroke-linecap="butt"/><path d="M252.99246,163.99501c0.5167,-0.1253 1.0539,-0.2534 1.5911,-0.221c0.7394,0.0427 1.5743,0.0884 2.1527,0.442c1.1531,0.7027 3.2084,1.4599 2.8078,2.6518c-0.3781,1.4983 -2.3922,2.8507 -4.4925,3.1675c-2.0684,0.3094 -4.7153,-0.414 -5.8029,-1.7679c-0.9172,-1.0298 0.4998,-2.4883 1.4039,-3.4621c0.483,-0.523 1.5275,-0.607 2.3399,-0.8103z" fill="#3d302b" stroke="#000000" stroke-width="1.68441" stroke-linecap="butt"/><path d="M236.32436,158.29109c0,2.0369 -1.5127,3.6891 -3.395,3.6891c-1.8729,0 -3.4006,-1.6541 -3.4006,-3.6891c0,-2.037 1.5277,-3.693 3.4006,-3.693c1.8823,0 3.395,1.656 3.395,3.693" fill="#231f20" stroke="none" stroke-width="1.88608" stroke-linecap="butt"/><path d="M229.72776,168.66651l-0.3,-0.3" fill="none" stroke="#000000" stroke-width="2" stroke-linecap="round"/><path d="M235.42776,171.11651l0.3,0.3" fill="none" stroke="#000000" stroke-width="2" stroke-linecap="round"/><path d="M228.67776,175.61651l0.3,0.3" fill="none" stroke="#000000" stroke-width="2" stroke-linecap="round"/><path d="M269.17776,167.61651l0.3,0.3" fill="none" stroke="#000000" stroke-width="2" stroke-linecap="round"/><path d="M272.17776,170.11651l0.3,0.3" fill="none" stroke="#000000" stroke-width="2" stroke-linecap="round"/><path d="M268.17776,172.11651l0.3,0.3" fill="none" stroke="#000000" stroke-width="2" stroke-linecap="round"/><path d="M218.77776,152.61651l3.65,-1.65" fill="none" stroke="#000000" stroke-width="1" stroke-linecap="round"/><path d="M251.33933,180.63076c0,1.8183 -1.22067,3.29231 -2.72645,3.29231c-1.50577,0 -2.72644,-1.47401 -2.72644,-3.29231c0,-1.8183 1.22067,-3.29231 2.72644,-3.29231c1.50578,0 2.72645,1.47402 2.72645,3.29231z" fill="none" stroke="#231f20" stroke-width="1.2" stroke-linecap="butt"/><g stroke-width="1.2" stroke-linecap="butt"><path d="M251.9101,133.95363c0.26242,3.08195 -5.60815,4.86299 -11.40184,5.3563c-5.79369,0.49331 -11.76429,-0.27949 -12.02671,-3.36144c-0.26242,-3.08195 5.36796,-7.68384 11.16164,-8.17716c5.79369,-0.49331 12.00449,3.10034 12.2669,6.18229z" fill="#e9b107" stroke="#231f20"/><path d="M245.45921,132.64988c0.25088,2.94648 0.49273,5.3318 -1.76037,5.52364c-2.2531,0.19184 -2.77814,-2.2929 -3.02903,-5.23938c-0.25088,-2.94648 -1.2982,-5.13968 0.9549,-5.33153c2.2531,-0.19184 3.58362,2.10078 3.8345,5.04726z" fill="#e9b107" stroke="#231f20"/><path d="M257.14316,134.7434c0.20474,2.4046 -7.22401,5.74178 -16.52609,6.53383c-9.30208,0.79204 -13.73477,-0.67043 -13.93951,-3.07503c-0.20474,-2.4046 4.15706,-1.77461 13.45914,-2.56665c9.30208,-0.79204 16.80172,-3.29674 17.00646,-0.89214z" fill="#e9b107" stroke="#231f20"/></g></g></g></g></svg>
